<svg version="1.1" style="font-family:&quot;Lucida Grande&quot;, &quot;Lucida Sans Unicode&quot;, Arial, Helvetica, sans-serif;font-size:12px;" xmlns="http://www.w3.org/2000/svg" width="600" height="400"><desc>Created with Highcharts 4.2.0</desc><defs><clippath id="highcharts-1"><rect x="0" y="0" width="522" height="279"></rect></clippath></defs><rect x="0" y="0" width="600" height="400" strokeWidth="0" fill="#FFFFFF" class=" highcharts-background"></rect><g class="highcharts-grid" zIndex="1"></g><g class="highcharts-grid" zIndex="1"><path fill="none" d="M 68 325.5 L 590 325.5" stroke="#D8D8D8" stroke-width="1" zIndex="1" opacity="1"></path><path fill="none" d="M 68 269.5 L 590 269.5" stroke="#D8D8D8" stroke-width="1" zIndex="1" opacity="1"></path><path fill="none" d="M 68 213.5 L 590 213.5" stroke="#D8D8D8" stroke-width="1" zIndex="1" opacity="1"></path><path fill="none" d="M 68 158.5 L 590 158.5" stroke="#D8D8D8" stroke-width="1" zIndex="1" opacity="1"></path><path fill="none" d="M 68 102.5 L 590 102.5" stroke="#D8D8D8" stroke-width="1" zIndex="1" opacity="1"></path><path fill="none" d="M 68 45.5 L 590 45.5" stroke="#D8D8D8" stroke-width="1" zIndex="1" opacity="1"></path></g><g class="highcharts-axis" zIndex="2"><path fill="none" d="M 111.5 325 L 111.5 335" stroke="#C0D0E0" stroke-width="1" opacity="1"></path><path fill="none" d="M 154.5 325 L 154.5 335" stroke="#C0D0E0" stroke-width="1" opacity="1"></path><path fill="none" d="M 198.5 325 L 198.5 335" stroke="#C0D0E0" stroke-width="1" opacity="1"></path><path fill="none" d="M 241.5 325 L 241.5 335" stroke="#C0D0E0" stroke-width="1" opacity="1"></path><path fill="none" d="M 285.5 325 L 285.5 335" stroke="#C0D0E0" stroke-width="1" opacity="1"></path><path fill="none" d="M 328.5 325 L 328.5 335" stroke="#C0D0E0" stroke-width="1" opacity="1"></path><path fill="none" d="M 372.5 325 L 372.5 335" stroke="#C0D0E0" stroke-width="1" opacity="1"></path><path fill="none" d="M 415.5 325 L 415.5 335" stroke="#C0D0E0" stroke-width="1" opacity="1"></path><path fill="none" d="M 459.5 325 L 459.5 335" stroke="#C0D0E0" stroke-width="1" opacity="1"></path><path fill="none" d="M 502.5 325 L 502.5 335" stroke="#C0D0E0" stroke-width="1" opacity="1"></path><path fill="none" d="M 546.5 325 L 546.5 335" stroke="#C0D0E0" stroke-width="1" opacity="1"></path><path fill="none" d="M 590.5 325 L 590.5 335" stroke="#C0D0E0" stroke-width="1" opacity="1"></path><path fill="none" d="M 67.5 325 L 67.5 335" stroke="#C0D0E0" stroke-width="1" opacity="1"></path><path fill="none" d="M 68 325.5 L 590 325.5" stroke="#C0D0E0" stroke-width="1" zIndex="7"></path></g><g class="highcharts-axis" zIndex="2"><text x="24.849999999999994" zIndex="7" text-anchor="middle" transform="translate(0,0) rotate(270 24.849999999999994 185.5)" class=" highcharts-yaxis-title" style="color:#707070;fill:#707070;" y="185.5"><tspan>Rainfall / mm</tspan></text></g><g class="highcharts-series-group" zIndex="3"><g class="highcharts-series highcharts-series-0 highcharts-tracker" zIndex="0.1" transform="translate(68,46) scale(1 1)" style="" clip-path="url(#highcharts-1)"><rect x="10.5" y="246.5" width="21" height="33" stroke="#FFFFFF" stroke-width="1" fill="#7cb5ec" rx="0" ry="0"></rect><rect x="54.5" y="199.5" width="21" height="80" stroke="#FFFFFF" stroke-width="1" fill="#7cb5ec" rx="0" ry="0"></rect><rect x="97.5" y="160.5" width="21" height="119" stroke="#FFFFFF" stroke-width="1" fill="#7cb5ec" rx="0" ry="0"></rect><rect x="141.5" y="135.5" width="21" height="144" stroke="#FFFFFF" stroke-width="1" fill="#7cb5ec" rx="0" ry="0"></rect><rect x="184.5" y="118.5" width="21" height="161" stroke="#FFFFFF" stroke-width="1" fill="#7cb5ec" rx="0" ry="0"></rect><rect x="228.5" y="83.5" width="21" height="196" stroke="#FFFFFF" stroke-width="1" fill="#7cb5ec" rx="0" ry="0"></rect><rect x="271.5" y="128.5" width="21" height="151" stroke="#FFFFFF" stroke-width="1" fill="#7cb5ec" rx="0" ry="0"></rect><rect x="315.5" y="113.5" width="21" height="166" stroke="#FFFFFF" stroke-width="1" fill="#7cb5ec" rx="0" ry="0"></rect><rect x="358.5" y="37.5" width="21" height="242" stroke="#FFFFFF" stroke-width="1" fill="#7cb5ec" rx="0" ry="0"></rect><rect x="402.5" y="62.5" width="21" height="217" stroke="#FFFFFF" stroke-width="1" fill="#7cb5ec" rx="0" ry="0"></rect><rect x="445.5" y="172.5" width="21" height="107" stroke="#FFFFFF" stroke-width="1" fill="#7cb5ec" rx="0" ry="0"></rect><rect x="489.5" y="218.5" width="21" height="61" stroke="#FFFFFF" stroke-width="1" fill="#7cb5ec" rx="0" ry="0"></rect></g><g class="highcharts-markers highcharts-series-0" zIndex="0.1" transform="translate(68,46) scale(1 1)" clip-path="none"></g></g><text x="300" text-anchor="middle" class="highcharts-title" zIndex="4" style="color:#333333;font-size:18px;fill:#333333;width:536px;" y="24"><tspan>Your Weekly Transactions</tspan></text><g class="highcharts-legend" zIndex="7" transform="translate(229,359)"><g zIndex="1"><g><g class="highcharts-legend-item" zIndex="1" transform="translate(8,3)"><text x="21" style="color:#333333;font-size:12px;font-weight:bold;cursor:pointer;fill:#333333;" text-anchor="start" zIndex="2" y="15"><tspan>Monthly rainfall</tspan></text><rect x="0" y="4" width="16" height="12" zIndex="3" fill="#7cb5ec"></rect></g></g></g></g><g class="highcharts-axis-labels highcharts-xaxis-labels" zIndex="7"><text x="89.75" style="color:#606060;cursor:default;font-size:11px;fill:#606060;" text-anchor="middle" transform="translate(0,0)" y="344" opacity="1">Jan</text><text x="133.25" style="color:#606060;cursor:default;font-size:11px;fill:#606060;" text-anchor="middle" transform="translate(0,0)" y="344" opacity="1">Feb</text><text x="176.75" style="color:#606060;cursor:default;font-size:11px;fill:#606060;" text-anchor="middle" transform="translate(0,0)" y="344" opacity="1">Mar</text><text x="220.25" style="color:#606060;cursor:default;font-size:11px;fill:#606060;" text-anchor="middle" transform="translate(0,0)" y="344" opacity="1">Apr</text><text x="263.75" style="color:#606060;cursor:default;font-size:11px;fill:#606060;" text-anchor="middle" transform="translate(0,0)" y="344" opacity="1">May</text><text x="307.25" style="color:#606060;cursor:default;font-size:11px;fill:#606060;" text-anchor="middle" transform="translate(0,0)" y="344" opacity="1">Jun</text><text x="350.75" style="color:#606060;cursor:default;font-size:11px;fill:#606060;" text-anchor="middle" transform="translate(0,0)" y="344" opacity="1">Jul</text><text x="394.25" style="color:#606060;cursor:default;font-size:11px;fill:#606060;" text-anchor="middle" transform="translate(0,0)" y="344" opacity="1">Aug</text><text x="437.75" style="color:#606060;cursor:default;font-size:11px;fill:#606060;" text-anchor="middle" transform="translate(0,0)" y="344" opacity="1">Sep</text><text x="481.25" style="color:#606060;cursor:default;font-size:11px;fill:#606060;" text-anchor="middle" transform="translate(0,0)" y="344" opacity="1">Oct</text><text x="524.75" style="color:#606060;cursor:default;font-size:11px;fill:#606060;" text-anchor="middle" transform="translate(0,0)" y="344" opacity="1">Nov</text><text x="568.25" style="color:#606060;cursor:default;font-size:11px;fill:#606060;" text-anchor="middle" transform="translate(0,0)" y="344" opacity="1">Dec</text></g><g class="highcharts-axis-labels highcharts-yaxis-labels" zIndex="7"><text x="53" style="color:#606060;cursor:default;font-size:11px;fill:#606060;width:188px;text-overflow:clip;" text-anchor="end" transform="translate(0,0)" y="329" opacity="1">0</text><text x="53" style="color:#606060;cursor:default;font-size:11px;fill:#606060;width:188px;text-overflow:clip;" text-anchor="end" transform="translate(0,0)" y="273" opacity="1">50</text><text x="53" style="color:#606060;cursor:default;font-size:11px;fill:#606060;width:188px;text-overflow:clip;" text-anchor="end" transform="translate(0,0)" y="217" opacity="1">100</text><text x="53" style="color:#606060;cursor:default;font-size:11px;fill:#606060;width:188px;text-overflow:clip;" text-anchor="end" transform="translate(0,0)" y="162" opacity="1">150</text><text x="53" style="color:#606060;cursor:default;font-size:11px;fill:#606060;width:188px;text-overflow:clip;" text-anchor="end" transform="translate(0,0)" y="106" opacity="1">200</text><text x="53" style="color:#606060;cursor:default;font-size:11px;fill:#606060;width:188px;text-overflow:clip;" text-anchor="end" transform="translate(0,0)" y="50" opacity="1">250</text></g><g class="highcharts-tooltip" zIndex="8" style="cursor:default;padding:0;pointer-events:none;white-space:nowrap;" transform="translate(0,-9999)"><path fill="none" d="M 3.5 0.5 L 13.5 0.5 C 16.5 0.5 16.5 0.5 16.5 3.5 L 16.5 28.5 C 16.5 31.5 16.5 31.5 13.5 31.5 L 3.5 31.5 C 0.5 31.5 0.5 31.5 0.5 28.5 L 0.5 3.5 C 0.5 0.5 0.5 0.5 3.5 0.5" isShadow="true" stroke="black" stroke-opacity="0.049999999999999996" stroke-width="5" transform="translate(1, 1)"></path><path fill="none" d="M 3.5 0.5 L 13.5 0.5 C 16.5 0.5 16.5 0.5 16.5 3.5 L 16.5 28.5 C 16.5 31.5 16.5 31.5 13.5 31.5 L 3.5 31.5 C 0.5 31.5 0.5 31.5 0.5 28.5 L 0.5 3.5 C 0.5 0.5 0.5 0.5 3.5 0.5" isShadow="true" stroke="black" stroke-opacity="0.09999999999999999" stroke-width="3" transform="translate(1, 1)"></path><path fill="none" d="M 3.5 0.5 L 13.5 0.5 C 16.5 0.5 16.5 0.5 16.5 3.5 L 16.5 28.5 C 16.5 31.5 16.5 31.5 13.5 31.5 L 3.5 31.5 C 0.5 31.5 0.5 31.5 0.5 28.5 L 0.5 3.5 C 0.5 0.5 0.5 0.5 3.5 0.5" isShadow="true" stroke="black" stroke-opacity="0.15" stroke-width="1" transform="translate(1, 1)"></path><path fill="rgba(249, 249, 249, .85)" d="M 3.5 0.5 L 13.5 0.5 C 16.5 0.5 16.5 0.5 16.5 3.5 L 16.5 28.5 C 16.5 31.5 16.5 31.5 13.5 31.5 L 3.5 31.5 C 0.5 31.5 0.5 31.5 0.5 28.5 L 0.5 3.5 C 0.5 0.5 0.5 0.5 3.5 0.5"></path><text x="8" zIndex="1" style="font-size:12px;color:#333333;fill:#333333;" y="20"></text></g><text x="590" text-anchor="end" zIndex="8" style="cursor:pointer;color:#909090;font-size:9px;fill:#909090;" y="395">Highcharts.com</text></svg>